# xmcd CD database file
#
# Track frame offsets:
#	150
#	17680
#	33295
#	43877
#	61729
#	91489
#	107496
#	119212
#	134990
#	150843
#	165029
#	177655
#
# Disc length: 2709 seconds
#
# Revision: 1
# Processed by: cddbd v1.5.2PL0 Copyright (c) Steve Scherf et al.
# Submitted via: CDex 1.51
#
DISCID=9a0a930c
DTITLE=Paul Kelly - The A-Z Recordings (Night Two - Act Two)
DYEAR=2010
DGENRE=Roots
TTITLE0=The Foggy Fields of France
TTITLE1=Foggy Highway
TTITLE2=Forty Miles to Saturday Night
TTITLE3=Forty-Eight Angels
TTITLE4=From Little Things Big Things Grow
TTITLE5=From St Kilda to Kings Cross
TTITLE6=Gathering Storm
TTITLE7=God Told Me To
TTITLE8=The Gift That Keeps on Giving
TTITLE9=Glory Be To God
TTITLE10=Going About My Father's Business
TTITLE11=How to Make Gravy
EXTD=YEAR: 2010
EXTT0=
EXTT1=
EXTT2=
EXTT3=
EXTT4=
EXTT5=
EXTT6=
EXTT7=
EXTT8=
EXTT9=
EXTT10=
EXTT11=
PLAYORDER=
